<svg width="1058" height="785" viewBox="0 0 1058 785" fill="none" xmlns="http://www.w3.org/2000/svg">
<g id="undraw_Ride_a_bicycle_2yok 1" clip-path="url(#clip0)">
<path id="Vector" d="M209.844 115.436C204.363 122.086 202.252 131.436 199.892 140.226C180.887 211.068 134.056 268.05 80.7231 308.751C58.1376 325.992 30.641 349.113 35.5822 380.024C38.2428 396.624 49.9157 408.844 58.5878 422.365C76.7821 450.676 82.6836 489.157 74.0115 523.048C64.1491 561.609 36.5824 597.59 45.1145 636.581C50.3758 660.582 68.2401 677.663 85.4142 692.343C112.207 715.23 139.854 736.671 168.354 756.665C187.459 770.065 207.784 783.106 230.049 784.806C249.654 786.306 268.858 778.856 287.473 771.505C303.737 765.075 320.411 758.385 333.544 745.505C342.116 737.094 348.948 726.244 358.47 719.364C380.835 703.203 409.562 713.444 435.209 720.364C495.723 736.604 560.489 730.674 618.073 703.623C706.404 662.122 773.73 574.969 860.131 528.208C897.28 508.097 937.69 495.617 972.088 469.716C991.467 454.969 1008.12 436.951 1021.3 416.475C1047.31 376.363 1061.37 325.222 1057.31 275.16C1053.25 225.099 1030.49 176.857 994.753 148.597C956.494 118.346 908.173 112.696 864.642 94.535C819.691 75.7744 779.702 43.5335 735.181 23.4029C699.156 7.15903 659.95 -0.815018 620.441 0.0657828C580.932 0.946584 542.121 10.6599 506.856 28.493C458.404 52.9937 409.292 110.155 355.329 114.496C316.88 117.496 239.871 79.0145 209.844 115.436Z" fill="url(#paint0_linear)"/>
<g id="man">
<path id="Vector_2" d="M387 554.303L344.293 512.159L330.947 525.683L373.654 567.827L387 554.303Z" fill="#535461"/>
<path id="Vector_3" d="M354.48 491.99C354.48 491.99 379.27 478.91 388.85 470.49C394.617 465.444 400.818 460.917 407.38 456.96L438.48 438.03L503.48 433.03L506.48 444.03C506.48 444.03 511.48 460.03 461.48 474.03C411.48 488.03 386.48 510.03 386.48 510.03C386.48 510.03 354.48 520.99 354.48 491.99Z" fill="#DB8B8B"/>
<path id="Vector_4" opacity="0.1" d="M389.13 507.86C387.36 509.21 386.48 509.99 386.48 509.99C386.48 509.99 354.48 520.99 354.48 491.99C354.48 491.99 356.03 491.17 358.48 489.8C360.955 493.831 364.423 497.16 368.551 499.469C372.679 501.778 377.33 502.99 382.06 502.99H385.45L389.13 507.86Z" fill="black"/>
<path id="Vector_5" opacity="0.05" d="M505.54 449.55C502.76 455.44 493.17 465.12 461.48 473.99C420.87 485.36 396.75 501.99 389.13 507.86C387.36 509.21 386.48 509.99 386.48 509.99C386.48 509.99 354.48 520.99 354.48 491.99C354.48 491.99 356.03 491.17 358.48 489.8C365.91 485.73 381.64 476.8 388.82 470.45C394.586 465.403 400.787 460.875 407.35 456.92L438.45 437.99L450.03 437.1L503.45 432.99L506.45 443.99C506.45 443.99 507.15 446.14 505.54 449.55Z" fill="black"/>
<path id="Vector_6" d="M354.98 485.49L328.48 502.99L406.08 567.99C406.08 567.99 417.48 560.99 411.48 552.99C411.48 552.99 391.48 535.99 390.48 511.99L384.48 503.99H381.09C375.358 503.991 369.767 502.211 365.089 498.897C360.412 495.583 356.88 490.898 354.98 485.49V485.49Z" fill="#ABB1D1"/>
<path id="Vector_7" opacity="0.1" d="M505.54 449.55C489.54 441.82 450.48 440.99 450.48 440.99L450.06 437.1L503.48 432.99L506.48 443.99C506.48 443.99 507.15 446.14 505.54 449.55Z" fill="black"/>
<path id="Vector_8" d="M450.48 438.99C450.48 438.99 497.48 439.99 509.48 449.99L503.48 328.99H438.48L450.48 438.99Z" fill="#ABB1D1"/>
<path id="Vector_9" opacity="0.05" d="M450.48 438.49C450.48 438.49 497.48 439.49 509.48 449.49L503.48 328.49H438.48L450.48 438.49Z" fill="black"/>
<path id="Vector_10" d="M488.24 364.95C488.24 364.95 605.89 360.95 608.29 376.16C610.69 391.37 490.64 384.96 490.64 384.96C490.64 384.96 481.04 375.35 488.24 364.95Z" fill="#535461"/>
<path id="Vector_11" opacity="0.05" d="M488.24 364.95C488.24 364.95 605.89 360.95 608.29 376.16C610.69 391.37 490.64 384.96 490.64 384.96C490.64 384.96 481.04 375.35 488.24 364.95Z" fill="black"/>
<path id="Vector_12" d="M393 425.78H372.19V606.66H393V425.78Z" fill="#7A7A7A"/>
<path id="Vector_13" opacity="0.1" d="M393 425.77V439.7C386.08 440.6 379 441.17 372.19 441.39V425.77H393Z" fill="black"/>
<path id="Vector_14" d="M391.44 410.78C388.52 410.554 385.616 410.164 382.74 409.61C371.46 407.45 343.02 402.92 335.37 410.61C325.77 420.21 328.97 437.02 354.58 439.42C380.19 441.82 424.21 435.42 433.02 425.81C433.02 425.77 417.09 412.75 391.44 410.78Z" fill="#535461"/>
<path id="Vector_15" d="M387.4 475.4L605.9 407.37L613.1 424.18L389 501.01L387.4 475.4Z" fill="#7A7A7A"/>
<path id="Vector_16" d="M452.23 582.65L609.9 427.38L618.7 440.18L468.23 597.05L452.23 582.65Z" fill="#7A7A7A"/>
<path id="Vector_17" opacity="0.1" d="M653.58 530.85C648.584 532.142 643.712 533.872 639.02 536.02L629.46 509.31C634.477 507.123 639.644 505.295 644.92 503.84L653.58 530.85Z" fill="black"/>
<path id="Vector_18" d="M680.33 610.26L669.13 616.66L590.99 398.33L587.49 388.56L605.9 378.15L610.51 392.53L680.33 610.26Z" fill="#7A7A7A"/>
<path id="Vector_19" opacity="0.1" d="M610.51 390.53L590.99 396.33L587.49 386.56L605.9 376.15L610.51 390.53Z" fill="black"/>
<path id="Vector_20" d="M491.44 407.37L601.09 369.75C601.09 369.75 620.3 372.15 613.09 388.16L502.65 420.97C502.65 420.97 485.85 422.57 491.44 407.37Z" fill="#535461"/>
<path id="Vector_21" opacity="0.1" d="M367.79 615.86C367.789 621.994 367.314 628.119 366.37 634.18C356.77 633.49 346.85 632.49 337.13 631.49C339.289 619.599 339.021 607.394 336.34 595.61C345.81 593.61 355.48 591.7 364.92 589.97C366.833 598.467 367.795 607.15 367.79 615.86V615.86Z" fill="black"/>
<path id="Vector_22" opacity="0.1" d="M393 585.38V606.65H372.19V588.65C379.39 587.4 386.39 586.29 393 585.38Z" fill="black"/>
<path id="Vector_23" d="M258.54 615.49C258.54 615.49 426.62 571.49 440.22 588.28C453.82 605.07 468.23 627.49 425.85 635.49C383.47 643.49 255.37 621.88 255.37 621.88L258.54 615.49Z" fill="#7A7A7A"/>
<path id="Vector_24" opacity="0.1" d="M341.21 541.37L319.85 560.92C316.067 556.064 311.791 551.614 307.09 547.64L327.03 526.81C332.164 531.249 336.908 536.12 341.21 541.37V541.37Z" fill="black"/>
<path id="Vector_25" d="M252.94 606.66L378.59 475.4L382.6 505.81L259.34 618.66L252.94 606.66Z" fill="#7A7A7A"/>
<path id="Vector_26" opacity="0.1" d="M251.34 628.27C258.415 628.27 264.15 622.535 264.15 615.46C264.15 608.385 258.415 602.65 251.34 602.65C244.265 602.65 238.53 608.385 238.53 615.46C238.53 622.535 244.265 628.27 251.34 628.27Z" fill="black"/>
<path id="Vector_27" opacity="0.1" d="M675.13 627.07C682.205 627.07 687.94 621.335 687.94 614.26C687.94 607.185 682.205 601.45 675.13 601.45C668.055 601.45 662.32 607.185 662.32 614.26C662.32 621.335 668.055 627.07 675.13 627.07Z" fill="black"/>
<path id="Vector_28" opacity="0.1" d="M448.22 628.27C462.364 628.27 473.83 616.804 473.83 602.66C473.83 588.516 462.364 577.05 448.22 577.05C434.076 577.05 422.61 588.516 422.61 602.66C422.61 616.804 434.076 628.27 448.22 628.27Z" fill="black"/>
<path id="Vector_29" d="M449.83 628.27C463.974 628.27 475.44 616.804 475.44 602.66C475.44 588.516 463.974 577.05 449.83 577.05C435.686 577.05 424.22 588.516 424.22 602.66C424.22 616.804 435.686 628.27 449.83 628.27Z" fill="#535461"/>
<path id="Vector_30" d="M442.992 600.736L442.984 600.742C439.977 602.991 439.362 607.253 441.611 610.26L461.937 637.441C464.186 640.448 468.448 641.063 471.455 638.814L471.463 638.808C474.471 636.559 475.085 632.297 472.836 629.29L452.51 602.109C450.261 599.102 446 598.487 442.992 600.736Z" fill="#6C63FF"/>
<path id="Vector_31" d="M565.48 246.99L563.1 277.1C562.826 280.914 562.876 284.744 563.25 288.55C563.56 291.92 563.25 297.82 559.95 306.82C555.713 318.317 553.523 330.467 553.48 342.72V376.99L530.48 372.99C530.48 372.99 531.48 324.99 527.48 316.99C523.48 308.99 530.48 237.99 530.48 237.99L565.48 246.99Z" fill="#DB8B8B"/>
<path id="Vector_32" opacity="0.05" d="M564.3 261.91L563.1 277.1C562.83 280.911 562.883 284.738 563.26 288.54C563.57 291.91 563.26 297.81 559.96 306.82C555.723 318.317 553.533 330.467 553.49 342.72V376.99L530.49 372.99C530.49 372.99 531.49 324.99 527.49 316.99C524.66 311.32 527.34 274.05 529.15 252.78C529.9 244.03 530.49 237.99 530.49 237.99L565.49 246.99L564.3 261.91Z" fill="black"/>
<path id="Vector_33" d="M451.5 476.99L442.85 526.19C441.759 532.759 440.086 539.218 437.85 545.49C432.78 559.35 436.02 578.78 438.48 589.38C439.57 594.06 440.48 597.02 440.48 597.02L414.48 611.02L406.48 605.02V601.02L405.48 512.02C399.48 498.02 401.48 477.02 405.48 469.02C406.617 466.392 407.417 463.63 407.86 460.8C409.86 450.08 410.48 435.02 410.48 435.02C410.48 435.02 426.48 408.02 445.48 426.02C452.48 432.65 455.14 441.32 455.7 449.62C456.68 463.83 451.5 476.99 451.5 476.99Z" fill="#DB8B8B"/>
<path id="Vector_34" opacity="0.1" d="M455.7 449.59C441.83 457.83 417.7 460.16 407.86 460.77C409.86 450.05 410.48 434.99 410.48 434.99C410.48 434.99 426.48 407.99 445.48 425.99C452.48 432.62 455.14 441.29 455.7 449.59Z" fill="black"/>
<path id="Vector_35" d="M489.48 424.99C478.846 430.653 468.797 437.352 459.48 444.99C443.48 457.99 403.48 458.99 403.48 458.99V443.99C404.48 425.99 387.48 405.99 364.48 349.99C349.79 314.23 353.86 293.99 358.72 283.99C361.48 278.34 364.48 275.99 364.48 275.99L489.48 299.99L493.95 313.39L503.48 341.99C503.48 341.99 468.48 343.99 462.48 346.99C456.48 349.99 460.48 376.99 460.48 376.99C454.48 404.99 489.48 424.99 489.48 424.99Z" fill="#ABB1D1"/>
<path id="Vector_36" opacity="0.1" d="M565.48 246.99L564.3 261.91C546.9 266.91 534.48 250.99 534.48 250.99C532.665 251.477 530.882 252.074 529.14 252.78C529.89 244.03 530.48 237.99 530.48 237.99L565.48 246.99Z" fill="black"/>
<path id="Vector_37" opacity="0.1" d="M493.95 313.39C493.48 318.06 493.48 320.99 493.48 320.99C493.48 320.99 470.48 339.99 431.48 310.99C392.48 281.99 357.48 289.99 357.48 289.99C357.48 289.99 357.89 287.67 358.72 283.99C361.48 278.34 364.48 275.99 364.48 275.99L489.48 299.99L493.95 313.39Z" fill="black"/>
<path id="Vector_38" d="M578.96 207.94C576.35 228.29 575.48 253.94 575.48 253.94C552.48 271.94 534.48 248.94 534.48 248.94C512.76 254.77 502.55 273.78 497.74 290.37C495.164 299.344 493.732 308.607 493.48 317.94C493.48 317.94 487.4 322.94 476.2 323.94C465.61 324.83 450.43 322.07 431.48 307.94C392.48 278.94 357.48 286.94 357.48 286.94C357.48 286.94 364.48 246.94 380.48 234.94C396.48 222.94 408.48 207.94 428.48 161.94C448.48 115.94 489.48 126.94 489.48 126.94C489.48 126.94 491.48 117.94 528.48 126.94C537.492 129.302 545.834 133.721 552.85 139.85C572.64 156.49 582.24 182.3 578.96 207.94Z" fill="white"/>
<path id="Vector_39" d="M541.85 149.49C541.8 150.82 541.69 152.3 541.51 153.95C539.51 171.95 537.51 169.95 515.51 173.95C501.83 176.44 494.72 165.01 491.3 156.01C490.062 152.75 489.128 149.382 488.51 145.95L536.51 137.95C536.51 137.95 542.26 136.34 541.85 149.49Z" fill="#DB8B8B"/>
<path id="Vector_40" opacity="0.05" d="M497.74 290.42C495.164 299.394 493.732 308.657 493.48 317.99C493.48 317.99 487.4 322.99 476.2 323.99C475.884 323.353 475.643 322.682 475.48 321.99C473.48 312.99 458.48 296.99 458.48 296.99C448.48 287.99 446.48 271.99 446.48 271.99L429.98 223.49L424.48 218.99C424.48 218.99 447.48 200.99 467.48 215.99C487.48 230.99 481.48 262.99 481.48 262.99L485.48 273.99C489.63 277.49 493.85 283.66 497.74 290.42Z" fill="black"/>
<path id="Vector_41" d="M427.48 217.99L449.48 270.99C449.48 270.99 451.48 286.99 461.48 295.99C461.48 295.99 476.48 311.99 478.48 320.99C480.48 329.99 508.48 353.99 508.48 353.99C508.48 353.99 534.48 377.99 536.48 386.99C536.48 386.99 560.48 393.99 557.48 407.99C557.48 407.99 575.48 389.99 557.48 372.99C539.48 355.99 515.48 320.99 515.48 320.99C515.48 320.99 501.48 283.99 488.48 272.99L484.48 261.99C484.48 261.99 490.48 229.99 470.48 214.99C450.48 199.99 427.48 217.99 427.48 217.99Z" fill="#DB8B8B"/>
<path id="Vector_42" opacity="0.1" d="M440.48 596.99L414.48 610.99L406.48 604.99V600.99C415.464 600.352 424.193 597.718 432.03 593.28C434.43 591.92 436.69 590.58 438.5 589.4C439.55 594.03 440.48 596.99 440.48 596.99Z" fill="black"/>
<path id="Vector_43" opacity="0.1" d="M470.48 175.99L484.48 230.99C484.48 230.99 441.48 237.99 432.48 230.99C423.48 223.99 406.48 221.99 406.48 221.99C406.48 221.99 424.48 169.99 434.48 163.99C444.48 157.99 470.48 175.99 470.48 175.99Z" fill="black"/>
<path id="Vector_44" d="M470.48 173.99L484.48 228.99C484.48 228.99 441.48 235.99 432.48 228.99C423.48 221.99 406.48 219.99 406.48 219.99C406.48 219.99 424.48 167.99 434.48 161.99C444.48 155.99 470.48 173.99 470.48 173.99Z" fill="white"/>
<path id="Vector_45" opacity="0.1" d="M541.85 148.49C539.049 152.356 535.487 155.609 531.383 158.047C527.278 160.485 522.718 162.058 517.983 162.669C513.248 163.28 508.439 162.915 503.85 161.598C499.261 160.281 494.99 158.039 491.3 155.01C490.062 151.75 489.128 148.382 488.51 144.95L536.51 136.95C536.51 136.95 542.26 135.34 541.85 148.49Z" fill="black"/>
<path id="Vector_46" d="M548.48 126.99C548.48 136.273 544.793 145.175 538.229 151.739C531.665 158.303 522.763 161.99 513.48 161.99C504.197 161.99 495.295 158.303 488.731 151.739C482.168 145.175 478.48 136.273 478.48 126.99C478.48 126.41 478.48 125.83 478.48 125.25C478.711 115.967 482.62 107.157 489.346 100.756C496.073 94.3555 505.067 90.8893 514.35 91.12C523.633 91.3508 532.443 95.2595 538.844 101.986C545.245 108.713 548.711 117.707 548.48 126.99V126.99Z" fill="#DB8B8B"/>
<path id="Vector_47" opacity="0.1" d="M548.48 126.99C548.483 130.216 548.039 133.426 547.16 136.53C544.455 137.12 541.633 136.861 539.08 135.79C535.34 134.32 532.13 131.79 528.54 129.97C518.43 124.85 506.4 125.86 495.2 127.55C489.64 128.39 483.33 129.17 478.96 125.63C478.81 125.511 478.666 125.385 478.53 125.25C478.761 115.967 482.67 107.157 489.396 100.756C496.123 94.3555 505.117 90.8893 514.4 91.12C523.683 91.3508 532.493 95.2595 538.894 101.986C545.295 108.713 548.761 117.707 548.53 126.99H548.48Z" fill="black"/>
<path id="Vector_48" opacity="0.05" d="M384.98 234.49C384.98 234.49 410.98 241.49 418.98 259.49C426.98 277.49 448.62 280.78 448.62 280.78" fill="black"/>
<path id="Vector_49" d="M482.98 630.49H422.98V649.49H482.98V630.49Z" fill="#535461"/>
<path id="Vector_50" d="M431.99 595.23C437.36 592.23 442.07 589.23 442.48 587.99C442.48 587.99 456.03 602.29 468.1 606.73C472.159 608.229 476.044 610.16 479.69 612.49C484.47 615.49 491.29 619.02 497.48 619.02C497.48 619.02 511.48 631.02 484.48 633.02C457.48 635.02 394.48 628.02 394.48 628.02L398.48 603.02C410.167 603.705 421.804 601 431.99 595.23Z" fill="#ABB1D1"/>
</g>
<g id="left-wheel">
<path id="Vector_51" d="M255.725 714.778L249.455 616.838L249.325 616.628L243.005 618.828L213.925 703.678L167.675 670.888L241.345 617.478L241.415 617.268L241.835 617.118L246.585 613.668L169.345 570.358L150.425 591.158L153.425 610.658L242.245 612.278V614.278L151.765 612.658L148.345 590.518L174.245 562.058L212.995 516.858L213.685 518.728L221.885 509.728L252.345 515.188V513.978L254.345 514.038V515.548L299.705 523.668L257.415 608.278L251.245 612.748V613.248V613.808L349.045 579.728L337.435 670.938L254.435 618.068L251.515 616.428L300.455 695.308L255.725 714.778ZM251.725 620.438L257.575 711.818L297.625 694.438L251.725 620.438ZM171.145 670.868L212.935 700.498L240.275 620.758L171.145 670.868ZM253.465 615.208L255.555 616.378L335.905 667.578L346.705 582.708L253.465 615.208ZM246.365 608.008L248.875 612.058L249.315 611.738L252.315 517.208L222.575 511.888L214.415 520.888L246.365 608.008ZM170.945 568.948L245.785 610.948L244.485 608.818L212.905 522.548L175.715 563.418L170.945 568.948ZM254.345 517.558L251.345 610.278L255.865 606.998L296.775 525.178L254.345 517.558Z" fill="#535461"/>
<path id="Vector_52" d="M365.415 587.738C361.405 569.919 353.285 553.283 341.705 539.158C337.406 533.909 332.666 529.038 327.535 524.598C307.809 507.567 282.986 497.568 256.962 496.17C230.938 494.771 205.187 502.053 183.749 516.873C162.311 531.693 146.401 553.211 138.515 578.05C130.629 602.89 131.214 629.645 140.178 654.116C149.142 678.587 165.978 699.39 188.042 713.258C210.107 727.127 236.152 733.277 262.09 730.743C288.028 728.208 312.39 717.134 331.353 699.257C350.317 681.379 362.807 657.712 366.865 631.968C367.809 625.907 368.284 619.783 368.285 613.648C368.292 604.932 367.329 596.242 365.415 587.738ZM250.225 702.088C231.993 702.069 214.209 696.435 199.292 685.953C184.374 675.47 173.047 660.648 166.851 643.501C160.655 626.354 159.89 607.715 164.66 590.118C169.43 572.521 179.505 556.82 193.513 545.15C207.521 533.48 224.783 526.408 242.953 524.895C261.122 523.381 279.316 527.501 295.062 536.693C310.807 545.884 323.34 559.703 330.956 576.268C338.571 592.834 340.9 611.343 337.625 629.278C333.875 649.722 323.076 668.203 307.107 681.506C291.137 694.809 271.01 702.093 250.225 702.088V702.088Z" fill="#535461"/>
<path id="Vector_53" d="M249.73 627.27C256.805 627.27 262.54 621.535 262.54 614.46C262.54 607.385 256.805 601.65 249.73 601.65C242.655 601.65 236.92 607.385 236.92 614.46C236.92 621.535 242.655 627.27 249.73 627.27Z" fill="#535461"/>
</g>
<g id="right-wheel">
<path id="Vector_54" d="M679.847 715.78L673.587 617.88L673.457 617.67L667.137 619.87L638.047 704.68L591.797 671.88L665.487 618.47L665.557 618.26L665.977 618.11L670.727 614.66L593.487 571.35L574.557 592.15L577.557 611.65L666.357 613.23V615.23L575.877 613.61L572.477 591.5L598.367 563.05L637.087 517.88L637.777 519.75L645.977 510.75L676.517 516.22V515.01L678.517 515.07V516.58L723.877 524.7L681.547 609.35L675.377 613.82V614.32V614.88L773.187 580.8L761.577 672.01L678.577 619.14L675.657 617.5L724.597 696.39L679.847 715.78ZM675.847 621.44L681.697 712.82L721.747 695.44L675.847 621.44ZM595.277 671.88L637.067 701.51L664.407 621.77L595.277 671.88ZM677.597 616.22L679.687 617.39L760.037 668.59L770.837 583.72L677.597 616.22ZM670.497 609.02L673.007 613.07L673.447 612.75L676.447 518.22L646.707 512.88L638.547 521.88L670.497 609.02ZM595.107 569.97L669.947 611.97L668.647 609.84L637.067 523.57L599.867 564.45L595.107 569.97ZM678.477 518.58L675.477 611.27L679.997 607.99L720.907 526.17L678.477 518.58Z" fill="#535461"/>
<path id="Vector_55" d="M674.757 497C664.144 496.988 653.578 498.415 643.347 501.24C638.071 502.695 632.904 504.523 627.887 506.71C601.157 518.297 579.674 539.387 567.594 565.898C555.514 592.41 553.697 622.459 562.492 650.233C571.287 678.008 590.071 701.533 615.209 716.259C640.348 730.984 670.054 735.863 698.582 729.952C727.109 724.04 752.431 707.759 769.648 684.257C786.865 660.755 794.754 631.702 791.789 602.72C788.823 573.738 775.215 546.885 753.595 527.356C731.975 507.828 703.881 497.012 674.747 497H674.757ZM674.357 703.09C654.076 703.082 634.408 696.137 618.62 683.407C602.831 670.678 591.872 652.931 587.562 633.113C583.252 613.295 585.851 592.599 594.928 574.463C604.004 556.326 619.011 541.84 637.457 533.41C642.149 531.262 647.021 529.532 652.017 528.24C664.229 525.07 676.977 524.537 689.411 526.678C701.845 528.818 713.681 533.581 724.13 540.652C734.58 547.722 743.404 556.937 750.015 567.683C756.627 578.429 760.873 590.46 762.473 602.975C764.073 615.49 762.989 628.202 759.293 640.265C755.598 652.329 749.375 663.467 741.04 672.939C732.704 682.41 722.447 689.998 710.951 695.196C699.455 700.395 686.984 703.086 674.367 703.09H674.357Z" fill="#535461"/>
<path id="Vector_56" d="M674.357 627.06C681.432 627.06 687.167 621.325 687.167 614.25C687.167 607.175 681.432 601.44 674.357 601.44C667.282 601.44 661.547 607.175 661.547 614.25C661.547 621.325 667.282 627.06 674.357 627.06Z" fill="#535461"/>
</g>
<g id="hat">
<path id="Vector_57" d="M453.624 105.927C455.754 112.607 465.984 112.817 471.234 117.737C473.964 120.297 475.234 124.077 478.234 126.357C482.404 129.537 488.424 128.837 493.734 128.077C504.424 126.557 515.904 125.647 525.544 130.257C528.964 131.887 532.034 134.167 535.604 135.497C539.174 136.827 543.604 136.987 546.504 134.627C548.824 132.737 549.674 129.627 551.774 127.547C553.404 125.907 555.674 124.987 557.534 123.547C561.614 120.467 563.374 115.447 564.534 110.647C566.934 100.767 567.624 90.1167 563.534 80.7467C559.444 71.3767 549.604 63.7467 538.864 64.2367C535.574 64.3867 532.364 65.2367 529.084 65.5967C520.534 66.4667 512.084 63.5967 503.504 63.1067C501.015 62.8039 498.49 63.1483 496.174 64.1067C494.427 65.0776 492.92 66.4273 491.764 68.0567C487.836 73.2021 485.146 79.1836 483.904 85.5367C482.904 90.3267 482.854 94.6667 476.984 95.4067C470.314 96.2867 449.114 91.7967 453.624 105.927Z" fill="#472727"/>
</g>
</g>
<defs>
<linearGradient id="paint0_linear" x1="961.295" y1="134.006" x2="81.187" y2="682.189" gradientUnits="userSpaceOnUse">
<stop stop-color="#76DEFF"/>
<stop offset="1" stop-color="#E7B4FF"/>
</linearGradient>
<clipPath id="clip0">
<rect width="1057.7" height="784.98" fill="white"/>
</clipPath>
</defs>
</svg>
